# xmcd
#
# Track frame offsets:
#	150
#	17691
#	36957
#	54678
#	69821
#	89856
#	106955
#	126513
#	142030
#	159064
#	180262
#	203142
#	217149
#	232969
#	247555
#
# Disc length: 3563 seconds
#
# Revision: 1
# Processed by: cddbd v1.5.1PL0 Copyright (c) Steve Scherf et al.
# Submitted via: audiograbber 1.83.01
#
DISCID=ca0de90f
DTITLE=ALAN RODRIGUES - VALE ACREDITAR
DYEAR=1900
DGENRE=
TTITLE0=NÃO PRECISO DE VOCÊ
TTITLE1=AMO VOCÊ
TTITLE2=ELA, EU E O CAMINHÃO
TTITLE3=SOU BRASILEIRO
TTITLE4=QUEM É VOCÊ
TTITLE5=ANJO MEU
TTITLE6=TRANSPORTANDO VIDAS
TTITLE7=COMO VOÊ ESTÁ
TTITLE8=NÃO DÁ MAIS
TTITLE9=VALE ACREDITAR
TTITLE10=É SEMPRE ASSIM
TTITLE11=TOCA ESSA SANFONA, SANFONEIRO
TTITLE12=TAXISTA
TTITLE13=AOS CAMINHONEIROS DESSE BRASILZÃO
TTITLE14=ANJO MEU-ACÚSTICO E AO VIVO
EXTD=
EXTT0=
EXTT1=
EXTT2=
EXTT3=
EXTT4=
EXTT5=
EXTT6=
EXTT7=
EXTT8=
EXTT9=
EXTT10=
EXTT11=
EXTT12=
EXTT13=
EXTT14=
PLAYORDER=
